<svg width="813" height="456" viewBox="0 0 813 456" fill="none" xmlns="http://www.w3.org/2000/svg">
<path d="M190 229C189 226.91 187.21 227 185.31 227.12C168.08 228.3 150.93 228.98 133.68 226.33C123.8 224.82 114.07 223.33 104.8 219.46C95.7999 215.7 88.2499 210.04 84.6899 200.74C82.3099 194.52 84.6899 188.1 87.4499 182.5C93.3399 170.31 102.07 160.26 112.14 151.15C120.731 143.617 129.695 136.521 139 129.89C145.76 124.89 153.3 120.98 160.37 116.4C172.24 108.856 184.578 102.075 197.31 96.0998C214.31 87.9698 231.03 79.4398 248.18 71.7598C260.59 66.2198 273.47 61.6998 286.18 56.8798C296.99 52.7798 307.92 48.9898 318.7 44.8198C320.47 44.1398 322.25 44.2198 323.98 43.6098C331.71 40.8598 339.32 37.4398 347.28 35.7998C355.24 34.1598 362.7 31.4098 370.36 29.0898C383.27 25.1598 396.69 23.2898 409.52 19.2298C417 16.8598 424.76 16.2298 432.31 14.3098C441.53 11.9898 450.99 10.5498 460.39 9.02979C473.6 6.88979 486.82 4.8098 500.08 3.0998C520.24 0.5098 540.54 0.8598 560.8 1.0998C574.72 1.2698 588.3 4.21979 601.45 8.49979C610.29 11.3698 616.86 18.0298 623.1 24.7398C624.51 26.2598 623.85 28.2298 623.99 30.0198C616.84 30.0898 609.69 30.1898 602.55 30.2198C530.35 30.5598 458.15 29.5198 385.96 30.7798C384.89 29.8498 384.31 30.5798 383.77 31.4398C381.947 32.2416 380.311 33.4154 378.968 34.886C377.625 36.3566 376.604 38.0916 375.97 39.9798C374.38 41.8698 375.07 44.1398 375.07 46.2298C375.07 93.8098 375.07 141.386 375.07 188.96C373.28 188.992 371.5 189.241 369.77 189.7C362.04 192.33 354.05 194.24 346.48 197.24C342.62 198.78 337.22 197.03 334.92 202.18C333.213 198.766 331.51 195.356 329.81 191.95C329.81 186.05 327.25 180.09 330.23 174.25C330.284 174.083 330.3 173.907 330.276 173.734C330.251 173.56 330.188 173.395 330.09 173.25C326.02 167.25 329.76 162.07 331.86 156.84C334.6 150.03 337.2 143.25 337.73 135.84C338.24 128.66 335.17 123.46 328.9 120.49C325.311 118.773 321.919 116.674 318.78 114.23C310.05 107.46 294.16 107.41 285.46 113.65C280.564 117.105 276.31 121.39 272.89 126.31C266.19 136.04 264.61 146.79 266.04 158.21C266.54 162.21 266.28 166.01 263.15 168.84C257.15 174.31 253.33 180.13 258.83 188.12C254.62 192.42 252.41 197.44 252.78 203.6C253.09 208.69 253.03 213.79 253.13 218.89L251.93 219.18C247.21 215.61 242.66 211.79 237.72 208.54C232.95 205.4 228.01 202.16 221.72 203.44C217.64 202.88 214.43 204.98 211.18 206.93C202.15 212.38 196.7 221.26 190 229Z" fill="#F1F5FA"/>
<path d="M656.93 63C657.57 68.33 655.75 73.83 658.03 79.05C657.102 85.6739 656.854 92.3755 657.29 99.05L657.03 119.83C657.03 136.25 656.81 152.66 657.11 169.07C657.16 172.07 654.44 175.07 657.05 178.07L656.81 202.94H524.41C522.75 202.94 521.08 202.94 519.41 202.94C517.74 202.94 516.14 203.51 516.17 205.32C516.28 210.14 513.17 209.96 509.8 209.96C470.84 209.92 431.874 209.92 392.9 209.96C386.01 209.96 385.99 209.96 385.99 203.04V70.22C385.99 63.04 385.99 63.04 393.13 63.04L656.93 63ZM526.34 100.1L526.39 99.95C526.25 97.3 526.17 94.64 525.97 92C525.45 85.38 519.53 80.72 511.97 80.89C505.19 81.04 500.21 85.7 499.97 92.31C499.91 94.23 498.97 96.85 502.53 97.1C505.75 97.33 505.77 95.39 506.01 93.04C506.43 88.91 509.01 86.84 513.14 86.98C517.48 87.13 519.85 89.5 519.93 93.92C519.93 95.92 519.93 97.92 519.85 99.92C519.53 100.01 519.22 100.12 518.91 100.23H516C510.28 100.23 504.52 99.3 498.84 100.75C495.51 101.88 496.12 104.48 496.5 106.99C495.98 112.331 495.98 117.709 496.5 123.05C495.58 127.31 497.82 128.8 501.62 128.82C509.2 128.82 516.774 128.82 524.34 128.82C525.79 128.82 527.34 129.01 528.12 127.23C528.53 127.135 528.895 126.902 529.155 126.571C529.415 126.24 529.554 125.831 529.55 125.41C529.55 118.11 529.63 110.8 529.55 103.5C529.586 103.121 529.543 102.74 529.424 102.379C529.304 102.018 529.111 101.685 528.856 101.403C528.601 101.121 528.29 100.895 527.943 100.74C527.596 100.584 527.22 100.502 526.84 100.5C526.791 100.402 526.721 100.316 526.634 100.249C526.548 100.181 526.447 100.134 526.34 100.11V100.1ZM511.42 197C530.06 197 548.7 197 567.33 197C580.94 197 580.04 197.92 579.97 184.3C579.97 177.55 579.37 176.98 572.46 176.98C534.02 176.98 495.58 176.98 457.14 176.98C442.79 176.98 443.98 175.87 444.01 190.17C444.01 196.17 444.82 196.99 451.01 197H511.42ZM511.98 147C493.65 147 475.33 147 456.98 147C442.98 147 443.98 146 443.98 159.86C443.98 166.74 445.22 167.97 452.11 167.97C490.11 167.97 528.094 167.97 566.06 167.97C579.66 167.97 580.17 170.72 579.96 153.86C579.88 147.86 579.14 147.04 572.96 147.04L511.98 147Z" fill="#DFE6F4"/>
<path d="M649 289C649 291.45 647 291.57 645.4 292.45C631.58 300.3 616.96 306.449 602.49 312.979C590.49 318.369 578.49 323.91 566.18 328.64C553.31 333.64 540.07 337.57 527.05 342.15C517.75 345.42 508.05 347.33 498.71 350.31C489.87 353.14 480.88 355.189 471.95 357.549C470.53 357.929 468.95 358.28 468.95 360.31L457 356L434 347L433.77 346.84L433.21 345.96C426.37 333.69 418.04 322.38 410.5 310.56C409.794 309.423 408.694 308.586 407.41 308.21C408.22 306.07 410.11 306.649 411.67 306.609C414.83 306.519 417.99 306.459 421.14 306.609C424.29 306.759 425.42 305.28 425.91 302.27C428.42 286.69 431.12 271.149 433.79 255.609C434.94 248.909 434.97 248.94 428.35 248.9C414.23 248.806 400.113 248.696 386 248.57C385.8 246.69 387.06 245.999 388.51 245.359C407.45 236.959 426 227.619 445.81 221.359C448.11 220.629 449.21 219.51 449 217.14C471.54 217.14 494.09 217.14 516.63 217.02C519.36 217.02 521.02 217.7 521.77 220.31C521.837 238.31 521.897 256.283 521.95 274.229C521.95 287.989 523.01 289.039 536.61 289.049L649 289Z" fill="#F1F5FA"/>
<path d="M722.16 417.9C741.37 418.43 760.44 420.5 779.51 422.77C789.6 423.98 799.51 425.52 808.93 429.46C812.93 431.11 813.03 432.81 809.5 435.15C804.19 438.66 797.85 438.92 791.91 439.76C774.08 442.29 756.31 445.25 738.24 446.19C722.37 447.01 706.51 448.19 690.63 449.08C669.44 450.3 648.24 451.17 627.04 452.2C616.57 452.71 606.04 452.14 595.68 453.05C578.23 454.58 560.76 453.41 543.32 454.05C478.74 456.21 414.15 454.89 349.57 454.67C331.31 454.6 313 454.54 294.72 453.97C274.48 453.34 254.22 452.97 234 451.88C220.59 451.18 207.18 450.48 193.77 449.88C171.93 448.88 150.07 447.77 128.31 445.79C111.04 444.21 93.8897 441.37 76.7297 438.79C73.1697 438.27 69.7298 436.79 66.3198 435.52C64.6498 434.91 62.5198 434.1 62.5098 432.03C62.5098 429.76 64.9098 429.63 66.5098 428.96C69.1098 427.88 71.7498 426.87 74.3698 425.83C80.9998 425.63 87.4498 424.23 93.8798 422.71L113.17 420.44C114.815 420.713 116.502 420.558 118.07 419.99C122.14 419.83 126.25 420.07 130.18 418.65C142.64 418.478 155.064 417.257 167.32 415L178.18 418.14C176.31 419.35 174.18 419.56 172.04 419.93C166.34 420.93 160.5 421.39 155.16 423.93C153.8 424.56 152.28 425.34 152.49 427.13C152.66 428.65 154.2 429.13 155.41 429.52C158.41 430.44 161.47 431.28 164.55 431.92C185.55 436.27 206.94 437.48 228.25 438.72C251.79 440.09 275.41 440.72 298.99 440.83C329.26 440.94 359.52 441.36 389.81 440.22C417.01 439.22 444.22 438.38 471.31 435.72C481.97 434.72 492.76 433.54 503.03 429.97C506.18 429.75 508.76 428.37 508.62 424.97C508.49 421.83 505.82 421.41 502.97 420.74C495.942 419.139 489.566 415.438 484.69 410.13C505.76 410.07 526.85 409.29 547.87 410.21C561.29 410.8 574.68 410.46 588.07 410.96C587.961 413.481 587.306 415.948 586.15 418.19C580.15 417.91 574.36 419.87 568.43 420.42C567.28 420.53 565.37 420.62 565.2 422.24C564.99 424.24 566.97 424.38 568.3 424.82C574.71 426.98 581.37 426.99 588.02 427.01C588.32 427.031 588.616 427.091 588.9 427.19L590.02 427.32L592.7 427.1C593.613 427.438 594.553 427.699 595.51 427.88C612.33 429.88 629.26 428.77 646.13 429.57C661.703 430.127 677.295 429.793 692.83 428.57C700.04 428.08 707.45 428.93 714.51 426.65C715.816 427.187 717.24 427.377 718.641 427.201C720.043 427.026 721.375 426.492 722.51 425.65C726.51 426.01 732.77 425.6 732.79 422.89C732.79 419.33 727.03 419.97 723.43 419.8C723 419.23 722 418.92 722.16 417.9Z" fill="#DFE6F4"/>
<path d="M113.2 420.45L93.91 422.72C93.0301 422.274 92.1215 421.886 91.1901 421.56C74.8701 417.11 69.4301 401.2 73.2601 388.24C75.0801 382.1 73.0501 377.99 68.6401 373.74C61.7201 367.07 52.9701 361.47 52.0801 350.43C53.6501 341.05 50.2701 333.77 43.2501 327.49C34.4901 319.64 32.5101 309.93 37.0701 298.95C38.6901 295.05 37.71 291.04 36.85 287.15C34.62 277.09 32.11 267.09 29.98 257.01C29.09 252.82 27.87 248.01 31.91 244.9C36.26 241.6 41.0901 243.31 45.5901 245.48C51.5901 248.35 54.9001 253.41 56.7801 259.48C58.4501 264.87 59.43 270.48 61.23 275.82C63.71 283.13 66.9401 290.07 75.0901 292.89C79.4101 295.23 81.4 298.96 81.85 303.76C82.22 307.76 82.7601 311.69 83.3701 315.63C84.0201 319.89 85.52 324.28 89.67 325.78C98.293 328.864 105.512 334.957 110 342.94C106 354.36 108.57 364.28 116.54 373.2C122.28 379.64 124.54 387.15 122.12 395.73C119.57 404.86 120.72 412.73 129.84 417.73C130.06 417.85 130.08 418.32 130.2 418.63C126.26 420.05 122.15 419.81 118.08 419.97C117.86 418.07 116.77 416.62 115.74 415.09C110.85 407.79 105.64 400.68 101.22 393.09C89.3895 372.63 78.959 351.391 70.0001 329.52C67.1101 322.52 64.0501 315.6 61.0701 308.64C62.8401 318.4 66.67 327.34 70.3 336.36C79.4341 359.381 90.25 381.698 102.66 403.13C106.11 409 110.77 414 113.2 420.45ZM55.4301 296C55.7241 299.432 57.0213 302.701 59.16 305.4C58.9149 301.957 57.6122 298.674 55.4301 296V296Z" fill="#6FAF49"/>
<path d="M677 273C677 275.69 676.93 278.38 676.89 281.07C674.89 281.07 672.89 280.99 670.89 280.99H538.43C531.05 280.99 530.97 280.89 530.97 273.38C530.97 259.886 530.97 246.393 530.97 232.9C530.97 225.02 530.97 225.03 538.91 225.02L676.83 224.89C676.876 240.916 676.933 256.953 677 273ZM599 246H625.94C627.94 246 630.03 246.21 630.01 243.12C630.01 240.54 629.22 238.97 626.35 238.97C608.563 238.97 590.773 238.97 572.98 238.97C570.09 238.97 569.3 240.73 569.1 243.1C568.83 246.2 571.01 246.01 573.1 246.01L599 246ZM649 263.91C648.86 251.37 650.66 253 637.73 252.91C636.73 252.91 635.73 252.91 634.73 252.91C632.25 252.91 631.06 254.1 631.08 256.58C631.08 260.41 631.08 264.24 631.08 268.07C631.08 274.94 631.08 274.92 638.01 274.94C651.18 275 648.73 275 648.93 263.93L649 263.91ZM596 263.91C595.9 251.3 597.54 253.02 584.8 252.91C584.14 252.91 583.47 252.96 582.8 252.91C579.45 252.62 577.88 253.99 578.05 257.49C578.22 260.99 578.05 264.79 578.05 268.49C578.05 274.37 578.69 275 584.71 274.97C597.69 274.86 595.81 276.34 596 263.94V263.91ZM552 263.77C552 265.93 552.13 268.09 552 270.23C551.68 274.7 554.73 275.45 557.79 274.77C561.97 273.85 568.51 278.53 569.88 270.44C570.45 267.06 569.98 263.5 569.98 260.02C569.98 252.89 569.98 252.85 562.86 252.88C550.57 253 552 251.47 551.94 263.8L552 263.77ZM622.17 263.45C622.17 261.3 622.06 259.14 622.17 256.99C622.36 254.1 621.25 252.12 618.27 252.99C613.86 254.24 607.86 249.26 604.96 256.29C604.84 256.951 604.84 257.628 604.96 258.29C604.96 261.94 605.18 265.6 604.9 269.22C604.57 273.48 606.04 275.13 610.49 275.02C624.16 274.64 621.91 276.52 622.11 263.48L622.17 263.45Z" fill="#DFE6F4"/>
<path d="M178.18 418.18L167.33 415C164.6 414 161.87 412.94 159.13 411.93C147.23 407.57 137.27 400.93 131.65 389.01C124.65 374.23 125.19 358.79 127.1 343.13C128.22 333.88 131.66 325.18 133.1 316.01C133.763 315.066 134.335 314.061 134.81 313.01C140.92 295.13 150.31 279.01 161.39 263.84C165.28 258.51 169.28 253.27 173.22 247.98C179.322 242.122 184.934 235.774 190 229C196.67 221.29 202.12 212.41 211.16 207C214.41 205 217.62 202.95 221.7 203.5C217.7 206.67 213.46 209.65 209.61 213.03C198.54 222.78 192.61 235.48 187.9 249.25C181.9 266.69 170.73 280.85 156.8 292.89C150.264 298.359 145.41 305.567 142.8 313.68C137.93 328.94 137.75 344.48 140.19 359.96C142.48 374.44 149.28 386.41 162.74 393.96C178.28 402.73 195.24 407.22 212.4 410.8C233.11 415.13 254.12 417.8 275.17 420.2C294.48 422.43 313.85 422.85 333.17 423.77C344.58 424.31 356.06 423.77 367.53 423.22C389.92 422.22 412.2 420.8 434.08 415.8C440.59 414.31 447.4 413.04 453.08 408.87C457.44 409.72 460.08 412.3 460.9 416.69C450.5 422.69 438.97 424.96 427.37 426.92C403.56 430.92 379.37 430.59 355.37 431.71C322.79 433.22 290.22 430.87 257.66 429.71C249.4 429.41 241.1 428.45 232.89 427.51C214.493 425.428 196.227 422.313 178.18 418.18V418.18Z" fill="#F98C5B"/>
<path d="M385.93 30.79C458.12 29.54 530.32 30.58 602.52 30.24C609.66 30.24 616.81 30.11 623.96 30.04L645.84 30.54C646.16 31.87 646.99 32.2 648.23 31.76C653.5 33.36 656.63 36.99 656.93 42.19C657.08 44.79 656.93 47.41 656.84 50.02H393.61C392.28 50.02 390.95 50.02 389.61 50.02C386.78 50.09 384.48 48.16 384.71 46.02C385.24 41.3 383.11 36.58 384.97 31.96L385.93 30.79Z" fill="#6977E6"/>
<path d="M521.76 220.19C521.01 217.58 519.35 216.89 516.62 216.9C494.08 217.04 471.53 217 448.99 217.02C428.99 217.02 408.99 217.02 389.06 216.95C381.06 216.95 376.06 211.81 375.94 203.86C375.89 198.86 376.22 193.86 375.07 188.98C375.07 141.4 375.07 93.8233 375.07 46.25C375.07 44.16 374.38 41.89 375.97 40C376.139 43.3317 376.122 46.6702 375.92 50C375.35 54.94 376.92 56.39 382.11 56.38C470.91 56.2 559.707 56.1567 648.5 56.25C651.33 56.25 654.16 56.12 656.99 56.05V63.05H393.2C386.07 63.05 386.06 63.05 386.06 70.23V203.1C386.06 210.01 386.06 210.02 392.97 210.02C431.943 210.02 470.91 210.02 509.87 210.02C513.24 210.02 516.35 210.2 516.24 205.38C516.24 203.57 517.84 203.03 519.48 203C521.12 202.97 522.81 203 524.48 203H656.88L656.97 207C654.64 207 652.31 207.07 649.97 207.07C610.37 207.07 570.776 207.07 531.19 207.07C528.48 207.07 525.37 206.35 524.01 209.91C520.81 212.78 522.33 216.55 522.11 219.99L521.76 220.19Z" fill="#C0C7E1"/>
<path d="M722.52 425.73C721.385 426.572 720.053 427.106 718.651 427.281C717.249 427.456 715.826 427.267 714.52 426.73C713.92 423.65 713.52 420.52 712.02 417.73C708.126 402.643 704.243 387.553 700.37 372.46C699.87 370.52 699.22 369.17 696.79 369.25C686.19 369.6 675.57 368.78 664.97 369.7C647.17 368.76 629.35 369.55 611.54 369.28C610.783 369.198 610.024 369.416 609.425 369.887C608.827 370.358 608.437 371.045 608.34 371.8C607.27 376.8 605.18 381.63 604.74 386.8H604.84L604.32 387.92L603.96 389.92C603.668 390.154 603.45 390.467 603.333 390.822C603.216 391.177 603.204 391.559 603.3 391.92C601.18 400.2 599.063 408.48 596.95 416.76C595.38 420.16 595.17 424.11 592.71 427.14L590.04 427.36L588.91 427.23C588.626 427.131 588.33 427.07 588.03 427.05C585.62 424.49 585.87 421.36 586.16 418.23C587.316 415.988 587.971 413.521 588.08 411C589.246 408.273 589.923 405.362 590.08 402.4C590.3 401.94 590.51 401.47 590.72 401.01C591.18 399.01 591.63 397.01 592.09 395.01C594.79 388.17 595.67 380.86 597.55 373.81C598.43 370.46 597.21 369.18 593.85 369.59C589.37 370.15 587.19 368.37 587.91 363.66C587.97 362.828 587.97 361.992 587.91 361.16C587.91 353.95 587.91 353.99 595.36 353.99C608.02 353.99 620.68 353.99 633.36 353.91L658.85 353.83C671.22 354.19 683.59 354.3 695.95 353.83C703.44 353.93 710.95 354.12 718.4 354.08C721.52 354.08 723.16 355.08 722.86 358.39C722.81 359.389 722.81 360.391 722.86 361.39C722.95 368.28 724.64 370.08 714.86 369.59C711.6 369.43 710.28 370.37 711.19 373.89C714.93 388.55 718.53 403.24 722.19 417.89C722.06 418.89 723.02 419.22 723.48 419.89L722.52 425.73Z" fill="#F98C5B"/>
<path d="M633.35 353.9C620.7 353.9 608.04 354 595.35 353.99C587.9 353.99 587.9 353.99 587.9 361.16C587.96 361.993 587.96 362.828 587.9 363.66C587.18 368.37 589.36 370.15 593.84 369.59C597.2 369.18 598.42 370.46 597.54 373.81C595.66 380.86 594.78 388.17 592.08 395.01C589.26 393.48 586.5 393.31 583.14 393.5C572.032 394.114 560.9 394.137 549.79 393.57C544.05 393.27 538.24 390.37 536.33 384.73C534.1 378.11 537.59 372.17 542.19 367.26C551.77 357.04 563.7 350.26 576.1 344.06C586.91 338.7 597.75 333.38 609.32 329.91C613.67 328.6 617.93 326.37 622.74 327.07C623.09 327.62 623.74 328.19 623.74 328.72C623.54 333.17 625.54 334.97 630 334.64C632.68 334.44 633 336.7 633.11 338.76C629.91 343.86 628.24 348.94 633.35 353.9Z" fill="#F1F5FA"/>
<path d="M52.0799 350.43C52.9699 361.43 61.7199 367.07 68.6399 373.74C73.0499 377.99 75.0799 382.1 73.2599 388.24C69.4299 401.24 74.8699 417.11 91.1899 421.56C92.1213 421.886 93.03 422.274 93.9099 422.72C87.4799 424.24 81.0299 425.64 74.3999 425.84C73.6599 423.46 72.3999 421.1 72.2899 418.7C72.1399 412.63 68.6199 409.92 63.4399 408.14C59.854 406.821 56.3422 405.309 52.9199 403.61C50.9213 402.728 49.1568 401.391 47.7677 399.705C46.3786 398.018 45.4033 396.031 44.9199 393.9C43.6599 388.67 40.3499 385.55 35.5299 383.78C25.7999 380.22 20.0999 373.9 20.1799 362.95C20.1799 358.84 17.2999 355.59 14.9799 352.35C10.5199 346.14 5.68991 340.16 2.14991 333.35C-1.26009 326.78 1.14987 322.76 8.54987 322.35C15.9499 321.94 21.1899 325.93 25.0599 331.77C27.3203 335.256 29.8373 338.568 32.5899 341.68C36.4199 345.95 40.9499 348.77 46.8799 348.68C48.7328 348.817 50.5213 349.419 52.0799 350.43V350.43Z" fill="#308445"/>
<path d="M173.18 248.05C169.24 253.34 165.24 258.58 161.35 263.91C150.27 279.09 140.88 295.2 134.77 313.08C134.295 314.131 133.722 315.136 133.06 316.08C130.8 312.15 129.59 307.8 128.06 303.57C126.06 297.93 124.06 292.28 120.45 287.39C117.53 283.47 113.85 281.8 109.14 283.16C104.43 284.52 101.46 287.74 100.84 292.73C100.395 296.545 100.677 300.41 101.67 304.12C103.392 310.21 105.648 316.136 108.41 321.83C111.57 328.76 112.96 335.67 110 342.98C105.509 334.99 98.2819 328.892 89.6498 325.81C85.4998 324.31 83.9998 319.92 83.3498 315.66C82.7398 311.72 82.1998 307.76 81.8298 303.79C81.3798 298.99 79.3898 295.26 75.0698 292.92C77.2598 288.3 81.6998 286.24 85.7598 283.92C95.2098 278.59 104.65 273.16 114.46 268.53C122.78 264.61 131.56 261.61 140.23 258.47C149.54 255.1 158.99 252.11 168.32 248.81C169.871 248.226 171.525 247.968 173.18 248.05V248.05Z" fill="#F1F5FA"/>
<path d="M656.9 206.91L656.81 202.91L657.05 178.03C662.05 173.03 664.68 166.81 665.73 159.84C666.258 155.908 667.405 152.083 669.13 148.51C671.35 144.08 674.44 143.1 678.93 145.11C680.22 145.69 681.32 147.93 683.12 145.86C686.79 141.05 687.41 135.18 688.77 129.57C688.748 129.505 688.74 129.435 688.745 129.366C688.751 129.297 688.77 129.23 688.801 129.169C688.833 129.107 688.877 129.053 688.93 129.008C688.983 128.964 689.044 128.931 689.11 128.91C689.897 128.752 690.646 128.447 691.32 128.01C694.53 124.82 697.98 124.01 702.03 126.43C702.6 126.77 703.57 126.43 704.35 126.43L704.1 126.69L704.39 126.47C704.27 127.94 705.2 127.92 706.22 127.76H706.07C706.155 128.093 706.348 128.388 706.62 128.598C706.892 128.809 707.226 128.922 707.57 128.92H707.88L708.01 129.2C707.93 132.83 710.51 134.42 713.19 135.92L713.11 135.85C714.54 144.99 716.11 154.12 713.89 163.38C713.07 166.73 711.59 169.98 712.1 173.57C712.169 174.042 712.118 174.524 711.952 174.971C711.786 175.419 711.51 175.817 711.15 176.13C707.93 177.08 707.89 180.13 707 182.55C706.36 184.49 704.49 185.11 703 186.02C693.43 191.9 683.8 197.67 674.19 203.47C672.81 204.3 671.02 204.72 670.93 206.81H664.87C666.25 203.19 669.96 202.26 672.69 200.28C685.43 191.05 695.49 179.93 698.44 163.89C699.08 160.39 700.91 156.56 698.19 151.82C697.44 162.45 694.76 171.14 688.79 178.72C681.784 187.364 673.663 195.04 664.64 201.55C662.64 203.02 660.23 204.01 659.92 206.91H656.9Z" fill="#308445"/>
<path d="M676.82 224.87L538.9 225C530.96 225 530.96 225 530.96 232.88C530.96 246.38 530.96 259.874 530.96 273.36C530.96 280.87 531.04 280.97 538.42 280.97H670.85C672.85 280.97 674.85 280.97 676.85 281.05C674.48 288.18 673.52 288.86 665.85 288.89L649 289L536.65 288.95C523.05 288.95 522.02 287.89 521.99 274.13C521.99 256.13 521.93 238.157 521.81 220.21L522.11 219.94C523.94 219.99 525.76 220.08 527.59 220.08H676.59C676.73 221.03 676.87 221.97 677.02 222.92L676.82 224.87Z" fill="#C0C7E1"/>
<path d="M689.11 129C689.044 129.02 688.983 129.054 688.93 129.098C688.877 129.143 688.833 129.197 688.801 129.259C688.77 129.32 688.751 129.387 688.745 129.456C688.74 129.525 688.748 129.594 688.77 129.66C685.772 134.637 683.847 140.186 683.12 145.95C681.32 148.02 680.22 145.78 678.93 145.2C674.44 143.2 671.35 144.2 669.13 148.6C667.405 152.173 666.257 155.997 665.73 159.93C664.73 166.93 662.09 173.08 657.05 178.12C654.44 175.17 657.16 172.12 657.11 169.12C656.81 152.71 657 136.3 657.03 119.88C658.63 120.33 659.92 119.44 661.29 118.88C673.61 114.12 684.4 106.76 694.93 98.96C697.5 102.69 701.55 101.74 705.08 101.96C712.72 102.41 719.47 104.28 725.4 109.72C727.621 111.617 729.193 114.161 729.896 116.996C730.599 119.831 730.397 122.815 729.32 125.53C726.93 132.31 722.69 138.46 716.03 142.27C714.7 140.27 714.91 137.6 713.11 135.82L713.19 135.89C712.301 133.114 710.468 130.736 708.01 129.17L707.88 128.89H707.57L706.07 127.73H706.22L704.39 126.44L704.1 126.66L704.35 126.4C697.74 122.06 693.57 122.75 689.11 129Z" fill="#F1F5FA"/>
<path d="M676.82 224.87L676.97 222.94C682.74 222.94 688.19 221.42 693.74 219.94C708.93 215.8 721.9 208.33 731.93 196.04C737.75 207.24 734.5 217.26 728.37 227.22C721.2 238.86 711.22 247.79 700.93 256.35C694.14 262 686.35 266.35 679.8 272.41C679.18 272.98 677.92 272.84 676.96 273.02C676.913 256.96 676.866 240.91 676.82 224.87Z" fill="#F1F5FA"/>
<path d="M657 56.0002C654.17 56.0702 651.34 56.2002 648.51 56.2002C559.71 56.2002 470.913 56.2435 382.12 56.3301C376.92 56.3301 375.36 54.8902 375.93 49.9502C376.132 46.6204 376.149 43.2818 375.98 39.9502C376.614 38.062 377.635 36.327 378.978 34.8564C380.321 33.3858 381.957 32.212 383.78 31.4102L385.02 31.9102C383.16 36.5302 385.29 41.2502 384.76 45.9702C384.53 48.1002 386.83 50.0302 389.66 49.9702C390.99 49.9702 392.32 49.9702 393.66 49.9702H656.89L657 56.0002Z" fill="#5553CB"/>
<path d="M731.93 196C721.93 208.29 708.93 215.76 693.74 219.9C688.19 221.41 682.74 222.9 676.97 222.9C676.82 221.9 676.68 221.01 676.54 220.06C676.75 219.06 676.96 218 677.16 216.97C679.09 217.05 680.67 216.07 682.29 215.24C691.35 210.58 698.85 203.74 706.77 197.49C708.08 196.49 710.44 195.97 710.57 192.99C707.96 194.14 706.32 195.73 704.43 196.99C695.43 202.88 687.43 210.26 677.2 214.13C676.26 212.63 676.47 210.35 674.2 209.75C673.78 208.01 671.95 207.82 670.92 206.75C671.01 204.66 672.8 204.24 674.18 203.41C683.79 197.61 693.42 191.84 702.99 185.96C704.47 185.05 706.34 184.43 706.99 182.49L709.24 181.21C716.91 177.51 723.44 172.07 730.4 167.27C733.08 165.42 736.03 161.82 739.01 163.48C742.5 165.43 740.16 169.79 739.92 173.13C739.32 181.5 735.59 188.74 731.93 196Z" fill="#6FAF49"/>
<path d="M657.29 99.0902C656.853 92.4157 657.101 85.7141 658.03 79.0902C665.03 65.8102 671.61 52.2202 682.37 41.3402C685.529 37.9114 689.437 35.259 693.79 33.5902C697.387 32.1802 701.383 32.1802 704.98 33.5902C711.09 36.0402 712.98 39.9302 711.06 46.2402C709.36 51.9302 705.91 56.6702 702.32 61.1902C698.516 66.226 694.225 70.8751 689.51 75.0702C685.06 79.0702 679.13 80.7202 674.63 84.7202C669 89.7002 663.09 94.3202 657.29 99.0902Z" fill="#308445"/>
<path d="M695.94 353.8C683.58 354.3 671.21 354.19 658.84 353.8C659.98 352.2 662.02 351.2 662.14 348.91C664.92 343.91 660.14 341.53 658.44 338.08C657.24 334.89 658.21 333.19 661.75 332.87C663.52 332.7 666.42 331.78 665.91 330.28C664.49 326.11 666.72 323.59 668.65 320.65C669.49 319.37 668.32 318.19 667.65 317.09C677.35 316.46 687.03 315.5 696.65 317.88C701.77 319.14 706.32 321.13 709.65 325.28C712.09 328.28 710.93 335.62 707.27 339.53C703.99 343.03 702.27 348.11 696.98 349.69C695.49 350.17 696 352.34 695.94 353.8Z" fill="#F1F5FA"/>
<path d="M657.29 99.0898C663.09 94.3198 669.02 89.6998 674.63 84.7198C679.13 80.7198 685.06 79.0498 689.51 75.0698C690.273 75.3673 691.074 75.5591 691.89 75.6398C696.77 75.4798 700.83 77.0498 702.89 81.6398C704.95 86.2298 702.4 90.2798 699.64 93.8798C698.24 95.6998 696.52 97.2798 694.95 98.9598C684.42 106.76 673.63 114.12 661.31 118.88C659.94 119.41 658.65 120.3 657.05 119.88C657.13 112.953 657.21 106.023 657.29 99.0898ZM659 110C660.61 110.19 661.81 109.39 663.09 108.55C670.81 103.44 678.57 98.4198 686.31 93.3498C687.48 92.5798 689.07 92.1998 689.4 89.4398C677.98 95.1198 667.68 101.32 659 110L658.28 111.07L658.66 111.31C658.73 110.9 658.84 110.47 659 110Z" fill="#6FAF49"/>
<path d="M460.94 416.69C460.12 412.3 457.48 409.69 453.12 408.87C453.04 408.18 452.97 407.49 452.89 406.8L466 399.74C468.56 400.74 469.47 405.86 473.67 402.86C475.38 408.27 480.03 409.22 484.67 410.15C489.554 415.477 495.95 419.182 503 420.77C505.85 421.44 508.52 421.86 508.65 425C508.79 428.37 506.21 429.75 503.06 430C499.26 428.3 495.06 428.58 491.06 427.56C486.885 426.474 482.484 426.62 478.39 427.98C471.45 430.2 466.89 427.98 464.22 421.28C463.51 419.41 463.27 417.33 460.94 416.69Z" fill="#F7BB9F"/>
<path d="M480.46 372C493.37 370.93 506.07 369.06 517.33 361.93C519.63 360.47 521.74 359.71 523.8 362.43C525.86 365.15 524.24 366.9 522.65 368.56C520.977 370.402 519.055 372.001 516.94 373.31C510.668 376.812 505.711 382.265 502.82 388.84C500.82 393.46 496.31 393.54 492.04 392.38C488.691 391.422 485.404 390.257 482.2 388.89C480.411 387.987 478.361 387.742 476.41 388.2L475.51 386.98C475.62 386.704 475.648 386.402 475.59 386.11C478.24 381.72 479.05 376.74 480.46 372Z" fill="#F7BB9F"/>
<path d="M480.46 372C479.05 376.78 478.24 381.76 475.59 386.11C470.39 385.11 466.67 381.67 463.98 377.59C460.468 372.017 457.698 366.009 455.74 359.72C455.06 357.72 456.22 357.11 456.99 356L468.99 360.33C471.251 361.737 473.588 363.019 475.99 364.17C479.5 365.66 481 368.15 480.46 372Z" fill="#3C355B"/>
<path d="M634.74 326.55C635.89 323.83 637.56 321.16 634.74 318.39C634.476 318.174 634.273 317.891 634.154 317.571C634.035 317.251 634.002 316.905 634.06 316.569C634.118 316.232 634.264 315.917 634.484 315.656C634.703 315.394 634.989 315.195 635.31 315.08C637.79 313.77 639.76 314.69 641.18 316.97C641 320.48 642.06 323.12 645.89 323.97C648.7 324.57 649.55 326.48 649.1 329.15C649.04 331.06 650.45 332.15 651.69 333.09C652.576 333.676 653.21 334.574 653.468 335.605C653.725 336.636 653.586 337.726 653.08 338.66L640.01 338.49C640.5 333.5 640.18 328.9 634.74 326.55Z" fill="#6FAF49"/>
<path d="M653 338.64C653.507 337.706 653.645 336.616 653.387 335.585C653.13 334.554 652.496 333.657 651.61 333.07C650.37 332.07 648.96 331.07 649.02 329.13C650.49 329.13 652.58 329.38 652.88 327.82C653.81 323.03 657.15 321.25 661.25 320.11C662.52 317.32 664.51 316.05 667.6 317.11C668.29 318.21 669.46 319.39 668.6 320.67C666.67 323.61 664.44 326.13 665.86 330.3C666.37 331.8 663.47 332.72 661.7 332.89C658.16 333.21 657.19 334.89 658.39 338.1C656.68 338.68 655 339.68 653 338.64Z" fill="#308445"/>
<path d="M634.74 326.55C640.18 328.9 640.5 333.55 639.96 338.47L635.04 339.22L633.11 338.76C632.96 336.7 632.68 334.44 630 334.64C625.54 334.97 623.54 333.17 623.74 328.72C623.74 328.19 623.11 327.62 622.74 327.07C622.47 325.68 621.42 324.07 623.32 323.13C625.22 322.19 627 322.24 628.26 324.02C628.915 325.092 629.904 325.92 631.074 326.376C632.244 326.833 633.532 326.894 634.74 326.55V326.55Z" fill="#308445"/>
<path d="M475.51 386.94L476.41 388.16C476.17 393.16 476.26 398.27 473.67 402.86C469.47 405.86 468.56 400.76 465.99 399.75C466.88 398.45 467.99 397.28 467.93 395.56C469.45 393.36 466.05 391.92 467 389.79C470.52 390.87 474.17 392.33 475.51 386.94Z" fill="#F98C5B"/>
<path d="M661.28 320.11C657.18 321.25 653.84 323.03 652.91 327.82C652.61 329.38 650.52 329.15 649.05 329.13C649.5 326.46 648.65 324.55 645.84 323.95C642.01 323.12 640.95 320.48 641.13 316.95C644.03 320.24 647.5 320.79 651.53 319.3C654.85 318.09 658 320.31 661.28 320.11Z" fill="#DFE6F4"/>
<path d="M713.11 135.82C714.91 137.6 714.7 140.28 716.03 142.27C717.741 152.854 716.377 163.708 712.1 173.54C711.59 169.95 713.1 166.7 713.89 163.35C716.15 154.09 714.54 145 713.11 135.82Z" fill="#3C355B"/>
<path d="M709.25 181.24L707 182.52C707.89 180.06 707.93 177.05 711.15 176.1L709.25 181.24Z" fill="#3C355B"/>
<path d="M648.23 31.76C646.99 32.2 646.16 31.87 645.84 30.54C647.15 29.93 647.73 30.76 648.23 31.76Z" fill="#A3A9C9"/>
<path d="M590.73 401C590.52 401.46 590.31 401.93 590.09 402.39C590.31 401.93 590.52 401.47 590.73 401Z" fill="#F1F5FA"/>
<path d="M452.89 406.8C452.97 407.49 453.04 408.18 453.12 408.87C447.49 413.04 440.68 414.31 434.12 415.8C412.24 420.8 389.96 422.24 367.57 423.22C356.1 423.72 344.57 424.31 333.21 423.77C313.86 422.85 294.49 422.43 275.21 420.2C254.16 417.78 233.15 415.13 212.44 410.8C195.28 407.22 178.32 402.73 162.78 393.96C149.32 386.37 142.52 374.4 140.23 359.96C137.79 344.48 137.97 328.96 142.84 313.68C145.45 305.567 150.304 298.359 156.84 292.89C170.77 280.89 181.96 266.69 187.94 249.25C192.66 235.48 198.58 222.78 209.65 213.03C213.5 209.65 217.7 206.67 221.74 203.5C228.02 202.23 232.96 205.5 237.74 208.61C242.68 211.86 247.23 215.68 251.95 219.25C252.06 220.4 251.88 221.7 253.48 222.02L253.81 226.17C252.606 231.811 253.204 237.687 255.52 242.97C255.61 244.04 255.7 245.11 255.78 246.17C254.78 247.5 254.71 248.76 256.05 249.92L256.21 252.92C256.01 256.92 255.38 260.99 259.12 263.92L260.96 264.4C261.07 266.08 261.17 267.77 261.28 269.4L260.85 274.13C259.34 276.47 260.14 278.99 260.3 281.46V286C258.55 290.52 256.37 294.93 255.16 299.58C253.277 307.306 252.549 315.27 253 323.21C253.15 326.92 251.74 327.16 248.42 326.21C240.94 324.13 237.42 318.72 235.2 312C234.87 311 235.42 309.27 233.63 309.45C232.26 309.58 232.15 310.97 231.98 312.16C230.14 324.4 234.65 332.92 245.64 338.89C250.984 341.66 256.522 344.039 262.21 346.01C252.97 349.08 243.65 348.51 235.85 353.55C251.85 353.55 267.99 349.25 283.69 355.93C281.53 358.51 278.27 359.88 277.36 363.4C280.61 363.78 282.56 361.55 285.06 360.82C291.6 358.92 297.79 360.58 304.17 361.82C313.36 363.58 322.28 365.42 329.34 372.37C331.05 374.06 333.34 376.42 337.44 375.16L327.75 365C343.87 365 358.75 364.8 373.75 365.06C385.45 365.27 396.58 367.78 406.98 373.74C412.12 376.68 416.51 380.85 422.19 382.84C422.265 383.335 422.484 383.798 422.82 384.169C423.156 384.541 423.594 384.806 424.08 384.93C429.32 391.36 434.42 397.93 439.83 404.2C444.93 410.14 445.47 410.09 452.89 406.8ZM267.89 406.96C271.05 406.96 274.23 407.13 277.38 406.96C282.43 406.61 284.98 401.96 283.17 397.27C280.97 391.51 275.98 388.93 270.88 387.27C257.7 382.87 244.37 378.89 230.99 375.11C221.767 372.413 212.744 369.072 203.99 365.11C193.15 360.34 186.71 351.11 183.31 339.77C181.496 334.08 179.075 328.602 176.09 323.43C172.23 316.43 160.78 315.85 157.42 322.57C154.095 328.883 152.249 335.869 152.02 343C151.81 359.22 160.52 370.3 173.12 379.12C183.88 386.65 196.12 390.77 208.3 395.21C227.406 402.32 247.535 406.302 267.91 407L267.89 406.96ZM319.09 394.96C312.75 395.55 305.4 393.96 298.17 395.96C295.36 396.71 292.38 397.44 292.17 400.9C291.96 404.36 295.06 405.03 297.39 406.16C303.97 409.35 310.9 411.03 318.13 412.43C336.334 416.079 354.986 416.945 373.45 415C378.86 414.41 381.45 411.77 382.06 407.06C382.74 401.47 379.51 399.8 374.94 398.97C356.78 395.62 338.43 394.94 319.11 394.94L319.09 394.96Z" fill="#FDC556"/>
<path d="M253.79 226.13L253.46 221.99C253.747 221.512 253.87 220.953 253.81 220.399C253.751 219.845 253.512 219.326 253.13 218.92C253.03 213.82 253.13 208.72 252.78 203.63C252.41 197.47 254.62 192.45 258.83 188.15C260.76 190.06 262.2 188.15 263.66 187.41C269.725 184.429 276.276 182.56 283 181.89C285.973 187.71 290.628 192.5 296.36 195.64C298.6 196.93 301.11 200.23 303.73 198.04C305.233 196.823 306.382 195.226 307.057 193.414C307.733 191.603 307.91 189.643 307.57 187.74C307.298 186.607 306.947 185.494 306.52 184.41C309.8 183.67 312.81 184.95 315.71 186C320.5 187.73 325.1 190 329.78 192L334.89 202.22C337.26 211.16 340.7 219.74 343.71 228.46C346.38 236.24 349.36 243.93 350.94 252.04C349.94 254.55 348.94 256.44 345.44 256.18C343.863 256.112 342.34 255.583 341.061 254.659C339.781 253.735 338.8 252.456 338.24 250.98C337.019 248.256 336.272 245.344 336.03 242.37C335.28 232.81 331.3 224.37 327.49 215.86C327.11 220.29 329.18 224.16 330.07 228.3C330.644 230.574 330.419 232.977 329.435 235.107C328.45 237.236 326.765 238.963 324.66 240C316.75 244.33 308.19 242.93 299.84 242.89C288.2 242.89 282.97 238.89 279.16 228.02C278.87 227.18 279.38 225.91 276.81 225.31C278.25 230.7 278.2 235.81 278.37 240.91C278.59 247.38 281.89 253.85 278.64 260.36C272.78 261.84 267.03 263.84 260.94 264.36L259.1 263.88C257.59 260.36 258.72 256.13 256.19 252.88C256.13 251.88 256.08 250.88 256.03 249.88L255.76 246.12C255.68 245.06 255.59 243.99 255.5 242.92C255.58 237.27 254.6 231.71 253.79 226.13Z" fill="#6977E6"/>
<path d="M283 181.89C276.265 182.557 269.705 184.426 263.63 187.41C262.17 188.1 260.73 190.06 258.8 188.15C253.3 180.15 257.09 174.34 263.12 168.87C266.25 166.04 266.51 162.2 266.01 158.24C264.58 146.82 266.16 136.07 272.86 126.34C276.28 121.42 280.534 117.135 285.43 113.68C294.13 107.44 310.02 107.49 318.75 114.26C321.889 116.704 325.282 118.803 328.87 120.52C335.14 123.52 338.21 128.69 337.7 135.87C337.17 143.31 334.57 150.09 331.83 156.87C329.73 162.1 325.99 167.31 330.06 173.28C330.158 173.425 330.221 173.591 330.246 173.764C330.27 173.937 330.254 174.114 330.2 174.28C327.2 180.12 329.73 186.08 329.78 191.98C325.1 189.98 320.5 187.74 315.71 185.98C312.81 184.93 309.8 183.65 306.52 184.39C304.3 179.99 305.18 173.25 308.19 173.22C317.69 173.15 319.66 165.92 321.91 159.22C324.64 151.13 325.19 142.6 325.68 134.11C325.85 131.22 326.07 128.3 323 126.66C319.93 125.02 316.78 125.8 314 127.58C312.391 128.744 310.918 130.085 309.61 131.58C302.8 138.65 298.38 147.74 290.61 154.02C288.61 155.62 288.61 157.67 289.72 159.87C290.336 160.974 290.635 162.226 290.586 163.489C290.536 164.752 290.14 165.977 289.44 167.03C286.388 171.54 284.204 176.579 283 181.89V181.89Z" fill="#292849"/>
<path d="M351 252C349.42 243.89 346.44 236.2 343.77 228.42C340.77 219.7 337.32 211.12 334.95 202.18C337.25 197.03 342.65 198.78 346.51 197.24C354.08 194.24 362.07 192.33 369.8 189.7C371.531 189.241 373.31 188.993 375.1 188.96C376.25 193.87 375.92 198.87 375.97 203.84C376.06 211.79 381.08 216.9 389.09 216.93C409.09 217.01 429.09 216.93 449.02 217C449.23 219.37 448.13 220.49 445.83 221.22C426.02 227.53 407.47 236.87 388.53 245.22C387.08 245.86 385.82 246.55 386.02 248.43C376.92 248.52 367.82 248.78 358.73 248.61C355.64 248.55 353.82 249.39 353.01 252.32L351.01 251.98L351 252Z" fill="#FEFEFE"/>
<path d="M253.13 218.92C253.512 219.326 253.751 219.846 253.81 220.4C253.87 220.954 253.747 221.512 253.46 221.99C251.86 221.66 252.04 220.36 251.93 219.21L253.13 218.92Z" fill="#F7BB9F"/>
<path d="M385 32.0001L383.76 31.5001C384.3 30.6401 384.88 29.9101 385.95 30.8401C385.61 31.1801 385.29 31.5701 385 32.0001Z" fill="#A3A9C9"/>
<path d="M511.42 197H451C444.8 197 444 196.21 444 190.17C444 175.87 442.78 176.97 457.13 176.98C495.57 176.98 534.01 176.98 572.45 176.98C579.36 176.98 579.92 177.55 579.96 184.3C580.03 197.92 580.96 197.03 567.32 197C548.7 197 530.06 197 511.42 197ZM529.8 187.49C529.767 187.112 529.653 186.745 529.466 186.415C529.279 186.084 529.023 185.797 528.716 185.574C528.409 185.35 528.058 185.195 527.686 185.118C527.314 185.042 526.93 185.046 526.56 185.13C526.184 185.144 525.816 185.24 525.481 185.411C525.146 185.582 524.853 185.824 524.621 186.12C524.39 186.416 524.226 186.759 524.141 187.126C524.056 187.492 524.052 187.872 524.13 188.24C524.24 189.72 525.04 190.85 526.63 190.7C527.452 190.633 528.223 190.275 528.804 189.69C529.385 189.105 529.738 188.332 529.8 187.51V187.49ZM519.87 187.81C519.67 185.98 518.67 185.05 516.87 185.12C515.07 185.19 513.93 186.06 514.24 187.92C514.325 188.668 514.674 189.36 515.224 189.873C515.773 190.387 516.488 190.687 517.24 190.72C519.21 190.81 519.82 189.46 519.87 187.83V187.81ZM487.76 190.81C489.39 190.33 490.76 189.36 490.76 187.45C490.76 185.91 489.55 185.15 488.05 185.15C485.99 185.15 485.05 186.33 485.14 188.31C485.139 188.648 485.208 188.982 485.341 189.293C485.474 189.603 485.67 189.883 485.915 190.115C486.16 190.347 486.451 190.527 486.768 190.643C487.085 190.759 487.423 190.809 487.76 190.79V190.81ZM475.18 187.81C475.283 188.63 475.679 189.385 476.295 189.936C476.91 190.487 477.704 190.797 478.53 190.81C480.08 190.81 480.84 189.64 480.83 188.13C480.882 187.713 480.835 187.29 480.692 186.895C480.549 186.5 480.313 186.144 480.006 185.858C479.698 185.572 479.327 185.363 478.922 185.248C478.518 185.134 478.092 185.118 477.68 185.2C477.345 185.197 477.013 185.262 476.703 185.391C476.394 185.52 476.114 185.711 475.881 185.951C475.647 186.191 475.464 186.476 475.344 186.789C475.224 187.101 475.168 187.435 475.18 187.77V187.81ZM507.55 190.81C507.92 190.775 508.279 190.661 508.602 190.477C508.925 190.293 509.206 190.043 509.425 189.742C509.645 189.441 509.798 189.098 509.874 188.734C509.951 188.37 509.949 187.994 509.87 187.63C509.864 187.26 509.778 186.896 509.617 186.563C509.457 186.229 509.226 185.935 508.941 185.699C508.656 185.463 508.323 185.292 507.966 185.197C507.608 185.103 507.234 185.086 506.87 185.15C506.499 185.16 506.135 185.251 505.803 185.417C505.472 185.583 505.181 185.82 504.951 186.111C504.721 186.402 504.557 186.74 504.473 187.101C504.388 187.462 504.383 187.837 504.46 188.2C504.59 188.927 504.97 189.585 505.535 190.062C506.099 190.538 506.812 190.803 507.55 190.81V190.81ZM497.46 185.14C497.08 185.163 496.71 185.268 496.375 185.448C496.04 185.627 495.747 185.877 495.518 186.18C495.288 186.483 495.126 186.831 495.044 187.203C494.961 187.574 494.96 187.958 495.04 188.33C495.18 189.81 496.04 190.9 497.62 190.74C499.2 190.58 500.62 189.56 500.48 187.89C500.34 186.22 499.05 185.39 497.46 185.14V185.14ZM548.91 188.06C548.91 186.6 548.35 185.33 546.76 185.24C546.366 185.17 545.962 185.185 545.575 185.284C545.187 185.383 544.826 185.565 544.515 185.816C544.204 186.068 543.95 186.383 543.772 186.741C543.593 187.099 543.494 187.491 543.48 187.89C543.466 188.29 543.539 188.688 543.692 189.057C543.846 189.427 544.077 189.759 544.37 190.031C544.663 190.303 545.011 190.509 545.391 190.635C545.77 190.761 546.172 190.803 546.57 190.76C548.11 190.73 548.83 189.59 548.91 188.06V188.06ZM536.69 185.12C536.311 185.118 535.937 185.197 535.592 185.352C535.247 185.508 534.939 185.735 534.69 186.02C534.441 186.304 534.255 186.639 534.147 187.001C534.038 187.364 534.008 187.745 534.06 188.12C534.06 189.66 534.89 190.76 536.45 190.76C538.31 190.76 538.95 189.41 538.96 187.76C539 186.17 538.48 185.07 536.69 185.12V185.12Z" fill="#FEFEFE"/>
<path d="M512 147H573C579.21 147 580 147.78 580 153.82C580.21 170.68 579.7 167.9 566.1 167.93C528.1 168.01 490.117 168.01 452.15 167.93C445.26 167.93 444.05 166.7 444.02 159.82C444 146 443 147 457 147C475.33 147.06 493.65 147 512 147ZM512.1 160C528.1 160 544.04 160 560.02 160C562.15 160 565.47 161 565.63 157.65C565.8 154.09 562.42 155.06 560.32 155.05C528.373 155.004 496.427 155.004 464.48 155.05C462.3 155.05 459.15 154.27 459.16 157.79C459.17 161.31 462.33 159.97 464.16 159.98C480.13 160.1 496.11 160.06 512.08 160.07L512.1 160Z" fill="#FEFEFE"/>
<path d="M496.54 123.06C496.025 117.719 496.025 112.341 496.54 107C498.89 105.51 498.2 102.88 498.89 100.76C504.57 99.3102 510.33 100.26 516.05 100.24C516.209 100.479 516.424 100.676 516.677 100.812C516.93 100.947 517.213 101.018 517.5 101.018C517.787 101.018 518.07 100.947 518.323 100.812C518.576 100.676 518.791 100.479 518.95 100.24C519.26 100.13 519.57 100.02 519.89 99.9302L526.42 100.08H526.37C526.488 100.095 526.6 100.139 526.698 100.207C526.795 100.275 526.875 100.365 526.93 100.47C527.756 102.464 528.139 104.614 528.05 106.77C528.05 113.57 528.16 120.38 528.22 127.19C520.64 127.12 513.05 126.82 505.48 127.08C501.54 127.26 498.53 126.55 496.54 123.06ZM516.89 112.74C517.08 110.92 516.99 109.5 515.31 108.68C514.675 108.276 513.942 108.053 513.19 108.034C512.438 108.014 511.695 108.2 511.04 108.57C509.71 109.42 508.67 110.63 509.24 112.31C509.876 114.376 510.111 116.546 509.93 118.7C509.82 120.83 511.27 121.08 512.93 121.08C514.59 121.08 516.13 120.96 516.03 118.83C515.849 116.761 516.143 114.678 516.89 112.74V112.74Z" fill="#5553CB"/>
<path d="M526.39 100.07L519.86 99.9202C519.86 97.9202 519.98 95.9202 519.94 93.9202C519.86 89.5002 517.49 87.1302 513.15 86.9802C509.07 86.8402 506.44 88.9102 506.02 93.0402C505.78 95.3902 505.76 97.3302 502.54 97.1002C498.94 96.8502 499.92 94.2302 499.98 92.3102C500.17 85.7002 505.15 81.0402 511.98 80.8902C519.58 80.7202 525.5 85.3802 525.98 92.0002C526.18 94.6402 526.26 97.3002 526.39 99.9502V100.07Z" fill="#A3A9C9"/>
<path d="M496.54 123.06C498.54 126.55 501.54 127.26 505.42 127.12C512.99 126.86 520.58 127.12 528.16 127.23C527.43 129.01 525.83 128.81 524.38 128.82C516.807 128.82 509.233 128.82 501.66 128.82C497.86 128.81 495.62 127.32 496.54 123.06Z" fill="#6A6A86"/>
<path d="M528.19 127.22C528.13 120.41 528 113.6 528.02 106.8C528.108 104.644 527.726 102.494 526.9 100.5C527.28 100.502 527.656 100.584 528.003 100.74C528.35 100.895 528.661 101.121 528.916 101.403C529.17 101.685 529.364 102.018 529.483 102.379C529.603 102.74 529.646 103.121 529.61 103.5C529.7 110.8 529.66 118.11 529.61 125.41C529.612 125.828 529.473 126.234 529.215 126.563C528.958 126.891 528.596 127.123 528.19 127.22V127.22Z" fill="#6A6A86"/>
<path d="M498.86 100.76C498.17 102.88 498.86 105.51 496.51 107C496.14 104.49 495.53 101.89 498.86 100.76Z" fill="#6A6A86"/>
<path d="M518.92 100.23C518.761 100.469 518.546 100.666 518.293 100.801C518.04 100.937 517.757 101.008 517.47 101.008C517.183 101.008 516.9 100.937 516.647 100.801C516.394 100.666 516.179 100.469 516.02 100.23H518.92Z" fill="#6A6A86"/>
<path d="M526.39 100.07L526.38 99.96L526.34 100.11L526.39 100.07Z" fill="#6A6A86"/>
<path d="M452.89 406.8C445.47 410.09 444.89 410.14 439.77 404.15C434.36 397.87 429.26 391.31 424.02 384.88C423.933 384.389 423.71 383.933 423.376 383.563C423.042 383.194 422.61 382.926 422.13 382.79V382.79C420.64 378.63 417.47 375.59 415.01 372.08C413.35 368.01 409.88 365.26 407.35 361.83C401.48 353.83 395.18 346.23 388.99 338.51C386.833 335.708 383.749 333.765 380.29 333.03C364.29 329.697 348.273 326.427 332.24 323.22C330.98 322.97 329.3 322.17 328.3 324.7C342.57 328.16 356.61 331.93 370.82 334.89C385.03 337.85 393.6 344.66 395.82 355.89C396.82 361 394.82 363.65 389.62 364.09C387.219 363.892 384.918 363.038 382.97 361.62C382.09 359.27 380.05 360.3 378.44 360.06C377.09 360.96 375.68 360.65 374.26 360.29C371.7 357.87 368.55 359.18 365.69 359.07C355.57 358.68 345.28 360.25 335.33 358.4C321.1 355.77 307.77 350.06 295.44 342.51C288.73 338.4 282.64 333.27 278.83 325.92C272.51 313.76 275.52 301.82 279.16 289.83C281.279 289.793 283.395 289.991 285.47 290.42C287.47 290.96 289.68 291.7 291.16 289.28C301.37 290.87 311.92 291.13 320.93 297.35C323.93 299.45 327.54 299.35 330.93 298.1C335.86 296.3 339.64 297.67 342.5 301.94C338.5 302 334.5 302.09 330.5 302.12C324.68 302.12 318.85 302.12 313.03 302.12C311.69 302.12 310.19 302.12 310.18 304.02C310.17 305.92 311.67 305.9 313.02 305.93C314.19 305.93 315.35 305.93 316.52 305.93C342.48 305.93 368.447 305.93 394.42 305.93C398.9 305.93 403.31 305.84 407.35 308.16C408.634 308.537 409.734 309.374 410.44 310.51C417.98 322.33 426.31 333.64 433.15 345.91C432.07 347.01 433.15 346.74 433.71 346.79L433.94 346.95C434.204 347.886 434.602 348.778 435.12 349.6C440.92 356.32 445.52 363.91 450.72 371.06C454.72 376.5 457.95 382.52 463.09 387.06C463.45 390.59 466.24 392.74 467.89 395.54C467.97 397.29 466.83 398.46 465.89 399.76L452.89 406.8Z" fill="#3C355B"/>
<path d="M407.4 308.15C403.4 305.83 398.95 305.91 394.47 305.92C368.47 305.98 342.503 305.98 316.57 305.92C315.4 305.92 314.24 305.92 313.07 305.92C311.72 305.92 310.23 305.92 310.23 304.01C310.23 302.1 311.74 302.11 313.08 302.11C318.9 302.11 324.73 302.11 330.55 302.11C334.55 302.11 338.55 301.99 342.55 301.93C347.55 302.72 347.16 299.44 346.45 296.42C346.06 294.75 344.79 293.3 343.92 291.75C346.29 292.24 348 292.14 348.23 288.93C348.54 284.65 349.31 280.4 349.88 276.14C351.57 269.47 353.31 262.81 352.97 255.84C352.89 255.594 352.82 255.344 352.76 255.09L353 252.42C353.81 249.49 355.63 248.65 358.72 248.71C367.81 248.88 376.91 248.62 386.01 248.53C400.13 248.637 414.247 248.747 428.36 248.86C434.98 248.86 434.95 248.86 433.8 255.57C431.13 271.11 428.43 286.65 425.92 302.23C425.43 305.23 424.31 306.71 421.15 306.57C417.99 306.43 414.84 306.49 411.68 306.57C410.1 306.59 408.21 306 407.4 308.15Z" fill="#6A6A86"/>
<path d="M463.14 387.05C458 382.51 454.74 376.49 450.77 371.05C445.57 363.9 440.97 356.31 435.17 349.59C434.652 348.768 434.254 347.876 433.99 346.94L456.99 355.94C456.22 357.05 455.06 357.63 455.74 359.66C457.699 365.95 460.469 371.957 463.98 377.53C466.67 381.61 470.39 385.03 475.59 386.05C475.649 386.342 475.621 386.644 475.51 386.92C474.17 392.31 470.51 390.85 467 389.77L463.14 387.05Z" fill="#292849"/>
<path d="M433.76 346.78C433.18 346.78 432.12 347 433.2 345.9L433.76 346.78Z" fill="#292849"/>
<path d="M460.94 416.69C463.27 417.33 463.51 419.41 464.24 421.25C466.91 427.98 471.47 430.17 478.41 427.95C482.504 426.59 486.905 426.444 491.08 427.53C495.08 428.53 499.23 428.27 503.08 429.97C492.81 433.54 482.02 434.68 471.36 435.72C444.27 438.38 417.06 439.2 389.86 440.22C359.57 441.36 329.31 440.94 299.04 440.83C275.46 440.75 251.84 440.09 228.3 438.72C206.99 437.48 185.6 436.27 164.6 431.92C161.52 431.28 158.47 430.44 155.46 429.52C154.25 429.15 152.71 428.65 152.54 427.13C152.33 425.34 153.85 424.56 155.21 423.93C160.55 421.42 166.39 420.93 172.09 419.93C174.23 419.56 176.36 419.35 178.23 418.14C196.295 422.294 214.581 425.422 233 427.51C241.21 428.45 249.51 429.41 257.77 429.71C290.33 430.87 322.9 433.22 355.48 431.71C379.48 430.59 403.64 430.93 427.48 426.92C439 425 450.54 422.65 460.94 416.69Z" fill="#A3A9C9"/>
<path d="M110 342.94C113 335.63 111.57 328.72 108.41 321.79C105.648 316.096 103.392 310.169 101.67 304.08C100.677 300.37 100.395 296.505 100.84 292.69C101.46 287.69 104.41 284.5 109.14 283.12C113.87 281.74 117.53 283.43 120.45 287.35C124.11 292.24 126.05 297.89 128.06 303.53C129.57 307.76 130.78 312.11 133.06 316.04C131.66 325.21 128.22 333.91 127.06 343.16C125.15 358.82 124.65 374.26 131.61 389.04C137.27 401 147.23 407.6 159.13 412C161.87 413 164.6 414 167.33 415.07C155.08 417.317 142.663 418.532 130.21 418.7C130.1 418.39 130.08 417.92 129.86 417.8C120.74 412.74 119.59 404.9 122.14 395.8C124.54 387.22 122.3 379.71 116.56 373.27C108.59 364.28 106.05 354.36 110 342.94Z" fill="#308445"/>
<path d="M592.7 427.13C595.16 424.13 595.37 420.13 596.94 416.75C601.94 417.45 606.86 416.07 611.83 416.03C625.31 415.92 638.83 415.95 652.26 415.83C672.26 415.64 692.12 416.13 712.01 417.68C713.53 420.5 713.91 423.68 714.51 426.68C707.45 428.96 700.04 428.11 692.83 428.6C677.295 429.823 661.703 430.156 646.13 429.6C629.26 428.8 612.33 429.93 595.51 427.91C594.554 427.728 593.614 427.468 592.7 427.13V427.13Z" fill="#A3A9C9"/>
<path d="M113.2 420.45C110.77 414.03 106.11 408.96 102.69 403.13C90.2801 381.697 79.4642 359.38 70.3301 336.36C66.7001 327.36 62.8701 318.36 61.1001 308.64C64.1001 315.64 67.1002 322.52 70.0302 329.52C78.9842 351.404 89.4114 372.656 101.24 393.13C105.66 400.71 110.87 407.82 115.76 415.13C116.76 416.66 117.88 418.13 118.1 420.01C116.532 420.574 114.844 420.726 113.2 420.45V420.45Z" fill="#308445"/>
<path d="M586.15 418.22C585.86 421.35 585.61 424.48 588.02 427.04C581.37 427.04 574.71 427.04 568.3 424.85C566.97 424.41 564.99 424.24 565.2 422.27C565.37 420.65 567.28 420.56 568.43 420.45C574.36 419.9 580.12 417.94 586.15 418.22Z" fill="#A3A9C9"/>
<path d="M722.52 425.73L723.45 419.88C727.04 420.05 732.82 419.41 732.8 422.97C732.78 425.68 726.48 426.09 722.52 425.73Z" fill="#A3A9C9"/>
<path d="M588.9 427.22L590.03 427.35L588.9 427.22Z" fill="#A3A9C9"/>
<path d="M55.4302 296C57.6123 298.674 58.915 301.957 59.1602 305.4C57.0214 302.701 55.7242 299.431 55.4302 296V296Z" fill="#308445"/>
<path d="M599 246H573C571 246 568.77 246.19 569 243.09C569.2 240.72 570 238.95 572.88 238.96C590.666 238.96 608.456 238.96 626.25 238.96C629.12 238.96 629.9 240.53 629.91 243.11C629.91 246.2 627.91 245.99 625.84 245.99L599 246Z" fill="#C0C7E1"/>
<path d="M648.93 263.93C648.73 275.04 651.18 274.99 637.93 274.93C631.02 274.93 631.02 274.93 631 268.06C631 264.23 631 260.4 631 256.57C631 254.09 632.17 252.88 634.65 252.9C635.65 252.9 636.65 252.9 637.65 252.9C650.59 253 648.79 251.39 648.93 263.93Z" fill="#A3A9C9"/>
<path d="M596 263.94C595.84 276.34 597.72 274.86 584.76 274.94C578.76 274.94 578.14 274.34 578.1 268.46C578.1 264.81 578.23 261.16 578.1 257.46C577.97 253.76 579.5 252.59 582.85 252.88C583.51 252.93 584.18 252.88 584.85 252.88C597.51 253.05 595.87 251.33 596 263.94Z" fill="#A3A9C9"/>
<path d="M551.94 263.8C552.04 251.47 550.57 252.98 562.77 252.91C569.89 252.91 569.89 252.91 569.89 260.05C569.89 263.53 570.36 267.05 569.79 270.47C568.42 278.56 561.88 273.88 557.7 274.8C554.64 275.48 551.59 274.73 551.91 270.26C552.07 268.12 551.94 266 551.94 263.8Z" fill="#A3A9C9"/>
<path d="M622.11 263.48C621.91 276.48 624.16 274.64 610.41 275C605.96 275.11 604.49 273.46 604.82 269.2C605.1 265.58 604.88 261.92 604.88 258.27C604.76 257.608 604.76 256.931 604.88 256.27C607.78 249.27 613.78 254.27 618.19 252.97C621.19 252.12 622.28 254.1 622.09 256.97C622 259.17 622.11 261.33 622.11 263.48Z" fill="#A3A9C9"/>
<path d="M677.16 217C676.96 218 676.75 219.06 676.54 220.09H527.54C525.71 220.09 523.89 220 522.06 219.95C522.28 216.51 520.76 212.74 523.96 209.87C554.08 209.87 584.2 209.896 614.32 209.95C634.32 209.95 654.26 209.85 674.22 209.8C676.47 210.4 676.22 212.68 677.22 214.17C677.18 215.1 677.17 216.05 677.16 217Z" fill="#6977E6"/>
<path d="M674.22 209.77C654.22 209.82 634.29 209.92 614.32 209.92C584.2 209.92 554.08 209.893 523.96 209.84C525.32 206.28 528.43 207 531.14 207C570.727 207 610.32 207 649.92 207C652.24 207 654.57 206.95 656.92 206.93H659.92L664.92 206.83H670.98C672 207.84 673.8 208 674.22 209.77Z" fill="#A3A9C9"/>
<path d="M712 417.68C692.11 416.13 672.2 415.68 652.25 415.83C638.78 415.95 625.25 415.92 611.82 416.03C606.82 416.03 601.94 417.45 596.93 416.75C599.037 408.47 601.153 400.19 603.28 391.91L603.94 389.91L604.3 387.91C604.47 387.53 604.64 387.16 604.82 386.79H604.73C606.32 387.16 607.99 388.04 609.5 387.79C620.12 386.25 630.35 383.03 640.42 379.5C648.17 376.79 655.31 372.38 663.54 370.86C664.07 370.76 664.48 370.06 664.95 369.64C675.55 368.72 686.17 369.54 696.77 369.19C699.2 369.11 699.85 370.46 700.35 372.4C704.217 387.466 708.1 402.56 712 417.68Z" fill="#FEFEFE"/>
<path d="M665 369.65C664.53 370.07 664.12 370.77 663.59 370.87C655.36 372.39 648.22 376.8 640.47 379.51C630.4 383.04 620.17 386.26 609.55 387.8C608.04 388.02 606.37 387.14 604.78 386.8C605.21 381.61 607.3 376.8 608.37 371.8C608.468 371.045 608.858 370.358 609.456 369.887C610.054 369.415 610.813 369.198 611.57 369.28C629.34 369.5 647.16 368.71 665 369.65Z" fill="#F1F5FA"/>
<path d="M633.11 338.76L635.04 339.22C635.04 346.16 637.51 348.8 644.39 348.94C650.31 349.05 656.22 348.94 662.14 348.94C662.02 351.23 659.98 352.23 658.84 353.83L633.35 353.91C628.24 348.94 629.91 343.86 633.11 338.76Z" fill="#A3A9C9"/>
<path d="M604 389.91L603.34 391.91C603.244 391.549 603.256 391.167 603.373 390.812C603.49 390.457 603.708 390.144 604 389.91V389.91Z" fill="#F1F5FA"/>
<path d="M604.83 386.81C604.65 387.18 604.48 387.55 604.31 387.93C604.48 387.55 604.65 387.18 604.83 386.81Z" fill="#F1F5FA"/>
<path d="M664.88 206.8L659.88 206.9C660.19 204 662.63 203.01 664.6 201.54C673.623 195.03 681.744 187.353 688.75 178.71C694.75 171.13 697.4 162.44 698.15 151.81C700.87 156.55 699.04 160.38 698.4 163.88C695.4 179.88 685.4 191.04 672.65 200.27C670 202.25 666.26 203.18 664.88 206.8Z" fill="#292849"/>
<path d="M689.11 129C693.57 122.8 697.74 122.11 704.35 126.49C703.57 126.49 702.6 126.86 702.03 126.49C698.03 124.1 694.53 124.88 691.32 128.07C690.649 128.517 689.899 128.832 689.11 129V129Z" fill="#3C355B"/>
<path d="M683.12 145.9C683.847 140.135 685.772 134.587 688.77 129.61C687.41 135.22 686.79 141.09 683.12 145.9Z" fill="#3C355B"/>
<path d="M708 129.17C710.458 130.736 712.291 133.114 713.18 135.89C710.51 134.39 707.93 132.8 708 129.17Z" fill="#3C355B"/>
<path d="M704.39 126.48L706.22 127.77C705.2 127.93 704.27 128 704.39 126.48Z" fill="#3C355B"/>
<path d="M706.07 127.72L707.57 128.88C707.226 128.882 706.892 128.769 706.62 128.558C706.348 128.348 706.155 128.053 706.07 127.72Z" fill="#3C355B"/>
<path d="M677.16 217C677.16 216 677.16 215.09 677.16 214.13C687.39 210.27 695.43 202.89 704.39 197C706.28 195.76 707.92 194.17 710.53 193C710.4 196 708.04 196.47 706.73 197.5C698.81 203.75 691.31 210.59 682.25 215.25C680.67 216.11 679.09 217.09 677.16 217Z" fill="#308445"/>
<path d="M662.14 348.94C656.22 348.94 650.31 349.05 644.39 348.94C637.51 348.8 635.05 346.16 635.04 339.22L639.96 338.47L653.03 338.64C654.95 339.64 656.68 338.64 658.44 338.11C660.15 341.56 664.92 344 662.14 348.94Z" fill="#C0C7E1"/>
<path d="M659 110C667.68 101.32 678 95.1199 689.4 89.4399C689.07 92.1999 687.48 92.5799 686.31 93.3499C678.57 98.4199 670.81 103.44 663.09 108.55C661.81 109.39 660.61 110.19 659 110V110Z" fill="#308445"/>
<path d="M659 110C658.89 110.44 658.78 110.87 658.66 111.31L658.28 111.07L659 110Z" fill="#308445"/>
<path d="M463.14 387.05L467 389.79C466 391.92 469.45 393.36 467.93 395.56C466.29 392.73 463.5 390.58 463.14 387.05Z" fill="#F7BB9F"/>
<path d="M267.91 407C247.558 406.288 227.453 402.3 208.37 395.19C196.21 390.75 183.95 386.63 173.19 379.1C160.59 370.28 151.88 359.2 152.09 342.98C152.319 335.849 154.166 328.863 157.49 322.55C160.85 315.83 172.3 316.42 176.16 323.41C179.145 328.582 181.566 334.06 183.38 339.75C186.78 351.11 193.22 360.32 204.06 365.09C212.815 369.052 221.837 372.393 231.06 375.09C244.44 378.87 257.77 382.85 270.95 387.25C276.05 388.95 281.04 391.53 283.24 397.25C285.05 401.98 282.5 406.59 277.45 406.94C274.25 407.13 271.07 407 267.91 407Z" fill="#FEE361"/>
<path d="M319.11 394.94C338.43 394.94 356.78 395.62 374.94 398.94C379.51 399.77 382.74 401.44 382.06 407.03C381.5 411.74 378.86 414.38 373.45 414.97C354.982 416.91 336.326 416.037 318.12 412.38C310.89 410.98 303.96 409.3 297.38 406.11C295.05 404.98 291.93 404.21 292.16 400.85C292.39 397.49 295.38 396.66 298.16 395.91C305.42 394 312.77 395.53 319.11 394.94Z" fill="#FEE361"/>
<path d="M374.26 360.25C375.68 360.61 377.09 360.92 378.44 360.02C379.68 361.33 381.36 361.34 382.97 361.58C384.921 362.999 387.225 363.853 389.63 364.05C397.946 367.193 406.432 369.864 415.05 372.05C417.51 375.56 420.68 378.6 422.17 382.76C416.49 380.76 412.1 376.6 406.96 373.66C396.56 367.66 385.43 365.19 373.73 364.98C358.8 364.72 343.87 364.92 327.73 364.92L337.45 375.14C333.32 376.4 331.06 374.04 329.35 372.35C322.29 365.4 313.35 363.56 304.18 361.8C297.8 360.58 291.61 358.92 285.07 360.8C282.57 361.53 280.62 363.8 277.37 363.38C278.28 359.86 281.54 358.49 283.7 355.91C268 349.23 251.88 353.57 235.86 353.53C243.66 348.53 252.98 349.06 262.22 345.99C256.532 344.019 250.994 341.64 245.65 338.87C234.65 332.87 230.15 324.38 231.99 312.14C232.16 310.95 232.27 309.56 233.64 309.43C235.43 309.25 234.88 311.01 235.21 311.98C237.48 318.7 240.95 324.11 248.43 326.19C251.75 327.1 253.16 326.86 253.01 323.19C252.541 315.235 253.255 307.255 255.13 299.51C256.34 294.86 258.52 290.45 260.27 285.93C261.27 286.69 261.05 288.36 262.44 288.81C260.83 293.35 258.99 297.81 257.63 302.45C254.395 313.181 254.156 324.593 256.94 335.45C258.06 339.82 260.13 343.28 265.09 344.56C279.6 348.29 293.75 353.2 307.83 358.29C310.94 359.42 313.89 361.23 317.32 361.18C336.31 360.94 355.29 360.58 374.26 360.25Z" fill="#F98C5B"/>
<path d="M343.9 291.72C344.77 293.27 346.04 294.72 346.43 296.39C347.14 299.39 347.51 302.69 342.53 301.9C339.67 297.63 335.89 296.26 330.96 298.06C327.54 299.3 323.96 299.41 320.96 297.31C311.96 291.09 301.4 290.83 291.18 289.24C284.66 287.42 278.09 285.73 271.62 283.71C266.94 282.26 263.36 279.56 262.82 274.07C262.67 272.47 261.82 270.94 261.29 269.37C261.18 267.69 261.08 266 260.97 264.37C267.06 263.9 272.81 261.9 278.68 260.37C278.94 262.84 279.07 265.37 279.51 267.77C279.87 269.71 280.45 271.52 282.83 272.26C296.29 276.4 309.71 280.69 323.16 284.85C324.097 285.217 325.114 285.338 326.111 285.202C327.109 285.065 328.055 284.676 328.86 284.07C334.81 284.73 339 289 343.9 291.72Z" fill="#F7BB9F"/>
<path d="M261.26 269.37C261.79 270.94 262.64 272.47 262.79 274.07C263.33 279.56 266.91 282.26 271.59 283.71C278.06 285.71 284.59 287.42 291.15 289.24C289.68 291.66 287.44 290.92 285.47 290.38C283.395 289.951 281.279 289.753 279.16 289.79C273.66 288.24 268.03 289.08 262.46 288.79C261.07 288.34 261.27 286.67 260.29 285.91C260.29 284.4 260.29 282.91 260.29 281.38C261.67 279.03 261.16 276.54 260.84 274.06L261.26 269.37Z" fill="#5553CB"/>
<path d="M253.79 226.13C254.6 231.71 255.58 237.27 255.5 242.93C253.184 237.647 252.586 231.771 253.79 226.13Z" fill="#F7BB9F"/>
<path d="M256.19 252.84C258.72 256.09 257.59 260.32 259.1 263.84C255.36 260.91 256 256.82 256.19 252.84Z" fill="#F7BB9F"/>
<path d="M260.83 274.1C261.15 276.58 261.66 279.1 260.28 281.42C260.12 279 259.32 276.44 260.83 274.1Z" fill="#F98C5B"/>
<path d="M255.76 246.13L256.03 249.89C254.69 248.72 254.75 247.46 255.76 246.13Z" fill="#F7BB9F"/>
<path d="M422.13 382.79C422.61 382.925 423.041 383.193 423.376 383.563C423.71 383.933 423.933 384.389 424.02 384.88C423.534 384.756 423.096 384.492 422.76 384.12C422.424 383.748 422.205 383.286 422.13 382.79V382.79Z" fill="#F98C5B"/>
<path d="M283 181.89C284.218 176.591 286.412 171.565 289.47 167.07C290.17 166.017 290.566 164.792 290.616 163.529C290.665 162.266 290.366 161.014 289.75 159.91C288.64 157.71 288.65 155.66 290.64 154.06C298.4 147.78 302.82 138.69 309.64 131.62C310.948 130.125 312.421 128.784 314.03 127.62C316.79 125.84 319.86 125.02 323.03 126.7C326.2 128.38 325.88 131.26 325.71 134.15C325.22 142.64 324.71 151.15 321.94 159.26C319.69 165.95 317.72 173.18 308.22 173.26C305.22 173.26 304.33 180.03 306.55 184.43C306.977 185.514 307.327 186.627 307.6 187.76C307.939 189.663 307.762 191.623 307.087 193.434C306.412 195.246 305.263 196.843 303.76 198.06C301.14 200.25 298.63 196.95 296.39 195.66C290.644 192.52 285.978 187.722 283 181.89V181.89Z" fill="#F7BB9F"/>
<path d="M328.83 284.07C328.026 284.675 327.079 285.065 326.082 285.202C325.084 285.338 324.068 285.217 323.13 284.85C309.68 280.69 296.26 276.4 282.8 272.26C280.42 271.52 279.8 269.71 279.48 267.77C279.04 265.34 278.91 262.84 278.65 260.37C281.89 253.86 278.59 247.37 278.37 240.92C278.2 235.82 278.25 230.71 276.81 225.32C279.38 225.92 278.87 227.19 279.16 228.03C282.97 238.85 288.16 242.85 299.84 242.9C308.19 242.9 316.75 244.34 324.66 240.01C326.776 238.977 328.472 237.247 329.463 235.111C330.454 232.975 330.679 230.562 330.1 228.28C329.21 224.14 327.1 220.28 327.52 215.84C331.33 224.36 335.31 232.79 336.06 242.35C336.302 245.325 337.049 248.236 338.27 250.96C338.83 252.436 339.811 253.715 341.09 254.639C342.37 255.564 343.893 256.092 345.47 256.16C348.99 256.42 350 254.53 350.97 252.02C350.89 253.41 350.85 254.78 352.72 255.02C352.78 255.273 352.85 255.523 352.93 255.77L338.81 259.69C336.29 259.07 335.81 256.85 335.02 254.86C333.73 251.41 332.54 247.93 331.31 244.46C329.7 257.81 326.68 270.81 328.83 284.07ZM301.83 258.9C298.32 258.52 292.9 259.34 287.48 260.01C285.15 260.3 282.25 260.79 281.7 263.01C281.15 265.23 283.98 266.33 285.57 267.72C285.847 267.9 286.138 268.057 286.44 268.19C296.24 274.09 307.17 276.68 318.14 279.19C327.14 281.27 326.75 281.39 327.21 272.28C327.5 266.59 325.35 263.68 320.33 261.28C314.85 258.7 309.35 259.17 301.79 258.9H301.83Z" fill="#5553CB"/>
<path d="M352.74 255.06C350.87 254.81 350.91 253.44 350.99 252.06L352.99 252.4L352.74 255.06Z" fill="#6977E6"/>
<path d="M529.8 187.51C529.743 188.336 529.392 189.114 528.81 189.703C528.229 190.292 527.455 190.653 526.63 190.72C525.04 190.87 524.24 189.72 524.13 188.26C524.053 187.892 524.056 187.512 524.141 187.146C524.226 186.78 524.39 186.436 524.622 186.14C524.853 185.844 525.147 185.602 525.481 185.431C525.816 185.26 526.184 185.164 526.56 185.15C526.93 185.066 527.314 185.062 527.686 185.139C528.058 185.215 528.41 185.37 528.717 185.594C529.023 185.817 529.279 186.104 529.466 186.435C529.653 186.765 529.767 187.132 529.8 187.51Z" fill="#C0C7E1"/>
<path d="M519.87 187.83C519.87 189.46 519.21 190.83 517.32 190.74C516.568 190.707 515.854 190.407 515.304 189.894C514.754 189.38 514.405 188.688 514.32 187.94C514.01 186.08 515.21 185.2 516.95 185.14C518.69 185.08 519.67 186 519.87 187.83Z" fill="#C0C7E1"/>
<path d="M487.76 190.79C487.418 190.815 487.074 190.768 486.751 190.654C486.427 190.539 486.131 190.359 485.881 190.124C485.631 189.889 485.433 189.604 485.298 189.289C485.164 188.973 485.096 188.633 485.1 188.29C484.96 186.29 485.95 185.13 488.01 185.13C489.51 185.13 490.7 185.89 490.72 187.43C490.74 189.34 489.39 190.31 487.76 190.79Z" fill="#C0C7E1"/>
<path d="M475.18 187.77C475.158 187.429 475.206 187.088 475.322 186.767C475.438 186.446 475.619 186.152 475.854 185.904C476.089 185.657 476.372 185.46 476.686 185.327C477 185.193 477.339 185.126 477.68 185.13C478.092 185.047 478.518 185.064 478.922 185.178C479.327 185.293 479.698 185.502 480.006 185.788C480.313 186.074 480.549 186.429 480.692 186.824C480.835 187.219 480.882 187.643 480.83 188.06C480.83 189.57 480.08 190.75 478.53 190.74C477.708 190.728 476.918 190.422 476.304 189.877C475.689 189.332 475.29 188.584 475.18 187.77V187.77Z" fill="#C0C7E1"/>
<path d="M507.55 190.81C506.81 190.806 506.094 190.542 505.528 190.065C504.962 189.589 504.58 188.929 504.45 188.2C504.373 187.838 504.378 187.462 504.463 187.101C504.547 186.74 504.71 186.402 504.94 186.111C505.17 185.82 505.462 185.583 505.793 185.417C506.125 185.251 506.489 185.16 506.86 185.15C507.224 185.087 507.598 185.103 507.956 185.198C508.313 185.292 508.646 185.463 508.931 185.699C509.216 185.935 509.447 186.23 509.607 186.563C509.768 186.896 509.854 187.261 509.86 187.63C509.939 187.993 509.941 188.369 509.865 188.732C509.789 189.095 509.637 189.439 509.419 189.739C509.2 190.039 508.921 190.29 508.599 190.475C508.277 190.66 507.919 190.774 507.55 190.81V190.81Z" fill="#C0C7E1"/>
<path d="M497.46 185.14C499.05 185.39 500.38 186.28 500.46 187.89C500.54 189.5 499.2 190.58 497.6 190.74C496 190.9 495.16 189.81 495.02 188.33C494.94 187.956 494.942 187.57 495.026 187.198C495.109 186.825 495.273 186.475 495.505 186.172C495.736 185.869 496.031 185.619 496.369 185.441C496.707 185.263 497.079 185.16 497.46 185.14V185.14Z" fill="#C0C7E1"/>
<path d="M548.91 188.07C548.83 189.59 548.11 190.73 546.57 190.76C546.172 190.803 545.77 190.76 545.391 190.635C545.011 190.509 544.663 190.303 544.37 190.031C544.077 189.758 543.846 189.427 543.692 189.057C543.539 188.688 543.466 188.29 543.48 187.89C543.494 187.491 543.593 187.099 543.772 186.741C543.95 186.383 544.204 186.068 544.515 185.816C544.826 185.565 545.187 185.383 545.575 185.284C545.962 185.184 546.366 185.169 546.76 185.24C548.35 185.33 548.88 186.6 548.91 188.07Z" fill="#C0C7E1"/>
<path d="M536.69 185.12C538.48 185.07 538.97 186.17 538.96 187.69C538.96 189.38 538.31 190.69 536.45 190.69C534.89 190.69 534.09 189.59 534.06 188.05C534.019 187.68 534.057 187.307 534.17 186.953C534.284 186.599 534.471 186.273 534.719 185.996C534.968 185.72 535.271 185.499 535.611 185.348C535.951 185.197 536.318 185.119 536.69 185.12V185.12Z" fill="#C0C7E1"/>
<path d="M512.08 160.07C496.08 160.07 480.13 160.07 464.16 160C462.31 160 459.16 161.3 459.16 157.81C459.16 154.32 462.3 155.07 464.48 155.07C496.433 155.03 528.38 155.03 560.32 155.07C562.42 155.07 565.8 154.07 565.63 157.67C565.47 161.05 562.15 160.01 560.02 160.02C544 160.1 528.05 160.07 512.08 160.07Z" fill="#C0C7E1"/>
<path d="M516.89 112.74C516.136 114.676 515.835 116.76 516.01 118.83C516.11 120.96 514.49 121.07 512.91 121.08C511.33 121.09 509.82 120.83 509.91 118.7C510.091 116.546 509.857 114.376 509.22 112.31C508.65 110.63 509.69 109.42 511.02 108.57C511.675 108.2 512.418 108.014 513.17 108.034C513.923 108.053 514.655 108.276 515.29 108.68C517 109.5 517.08 110.92 516.89 112.74Z" fill="#3C355B"/>
<path d="M262.46 288.83C268.03 289.08 273.66 288.24 279.16 289.83C275.52 301.83 272.51 313.76 278.83 325.92C282.64 333.27 288.73 338.4 295.44 342.51C307.77 350.06 321.1 355.77 335.33 358.4C345.28 360.25 355.57 358.68 365.69 359.07C368.55 359.18 371.69 357.87 374.26 360.29C355.26 360.62 336.26 360.98 317.34 361.29C313.91 361.29 310.96 359.53 307.85 358.4C293.77 353.31 279.62 348.4 265.11 344.67C260.11 343.39 258.11 339.93 256.96 335.56C254.176 324.702 254.415 313.291 257.65 302.56C259 297.85 260.85 293.37 262.46 288.83Z" fill="#292849"/>
<path d="M415.05 372.09C406.432 369.904 397.946 367.233 389.63 364.09C394.81 363.65 396.81 361 395.82 355.89C393.64 344.71 384.95 337.89 370.82 334.89C356.69 331.89 342.57 328.16 328.3 324.7C329.3 322.17 330.98 322.969 332.24 323.219C348.24 326.439 364.256 329.71 380.29 333.03C383.749 333.764 386.833 335.707 388.99 338.51C395.18 346.23 401.48 353.87 407.35 361.83C409.92 365.27 413.39 368 415.05 372.09Z" fill="#292849"/>
<path d="M383 361.58C381.39 361.34 379.71 361.33 378.47 360.02C380.05 360.26 382.09 359.23 383 361.58Z" fill="#292849"/>
<path d="M328.83 284.07C326.68 270.81 329.7 257.81 331.33 244.5C332.56 247.97 333.75 251.5 335.04 254.9C335.79 256.9 336.31 259.11 338.83 259.73C338.97 263.2 340.26 266.41 341.12 269.73C342.31 274.29 344.85 276.87 349.86 276.12C349.29 280.38 348.52 284.63 348.21 288.91C347.98 292.12 346.27 292.22 343.9 291.73C339 289 334.81 284.73 328.83 284.07Z" fill="#F1F5FA"/>
<path d="M349.86 276.11C344.86 276.86 342.31 274.28 341.12 269.72C340.26 266.41 338.97 263.2 338.83 259.72L353 255.81C353.29 262.78 351.55 269.44 349.86 276.11Z" fill="#F7BB9F"/>
<path d="M301.79 258.9C309.35 259.17 314.85 258.7 320.29 261.3C325.29 263.71 327.46 266.62 327.17 272.3C326.71 281.41 327.09 281.3 318.1 279.21C307.1 276.67 296.2 274.08 286.4 268.21C286.098 268.078 285.807 267.92 285.53 267.74C283.94 266.35 281.15 265.11 281.66 263.03C282.17 260.95 285.11 260.32 287.44 260.03C292.86 259.34 298.28 258.52 301.79 258.9Z" fill="#6977E6"/>
</svg>
